<svg version="1.2" xmlns="http://www.w3.org/2000/svg" viewBox="0 0 48 48" width="48" height="48">
	<title>Nový projekt</title>
	<style>
		.s0 { fill: #e6e6e6 } 
		.s1 { fill: #404040 } 
		.s2 { fill: #40c477 } 
	</style>
	<path id="Tvar 1" class="s0" d="m0 4c0-2.2 1.8-4 4-4h40c2.2 0 4 1.8 4 4v40c0 2.2-1.8 4-4 4h-40c-2.2 0-4-1.8-4-4z"/>
	<path id="K" class="s1" aria-label="K"  d="m4 41v-29.2h7.5v10.7l10.9-10.7h8.7l-14.1 13.8 15.5 15.4h-9.4l-11.6-11.5v11.5z"/>
	<path id="t" class="s2" aria-label="t"  d="m33.8 19.9h4.7v4.7h4.8v3.7h-4.8v7q0 1.1 0.4 1.6 0.4 0.4 1.6 0.4h2.4v3.7h-4q-2.8 0-4-1.3-1.1-1.3-1.1-4.4v-7h-2.4v-3.7h2.4z"/>
</svg>